# xmcd
#
# Track frame offsets:
#	150
#	12655
#	32265
#	42417
#	58189
#	73222
#	90385
#	105967
#
# Disc length: 1718 seconds
#
# Revision: 0
# Processed by: cddbd v1.5.2PL0 Copyright (c) Steve Scherf et al.
# Submitted via: EasyCDDAExtractor 10.2.0.1
#
DISCID=6106b408
DTITLE=Various Artist - The Primitive Qt And Friends
DYEAR=1999
DGENRE=Gospel
TTITLE0=Primitive Quartet - A Bright Home
TTITLE1=Davis Family - Everything I Need
TTITLE2=Bobby All  - Log Cabin Treasures
TTITLE3=Harvest Time Quartet - In Heaven Time Won't Matter Anymore
TTITLE4=Smoky Mountain Boys - Mary's little Lamb
TTITLE5=New Road - Fair Weather
TTITLE6=Davis Family - Blossoms From Heaven
TTITLE7=New Road - Old Fashioned
EXTD=
EXTT0=
EXTT1=
EXTT2=
EXTT3=
EXTT4=
EXTT5=
EXTT6=
EXTT7=
PLAYORDER=
